<?xml version="1.0"?>
<svg xmlns="http://www.w3.org/2000/svg" xmlns:xlink="http://www.w3.org/1999/xlink" xmlns:svgjs="http://svgjs.com/svgjs" version="1.1" width="512" height="512" x="0" y="0" viewBox="0 0 512.008 512.008" style="enable-background:new 0 0 512 512" xml:space="preserve" class=""><circle r="256.004" cx="256.004" cy="256.004" fill="#4a4a4a" shape="circle" transform="matrix(1,0,0,1,0,0)"/><g transform="matrix(-0.7,-8.572527594031472e-17,8.572527594031472e-17,-0.7,435.20762634277344,435.20683193206787)">
<path xmlns="http://www.w3.org/2000/svg" style="" d="M306.219,45.796c-21.838-21.838-57.245-21.838-79.083,0s-21.838,57.245,0,79.083l77.781,77.803  H53.333C23.878,202.682,0,226.56,0,256.015c0,29.455,23.878,53.333,53.333,53.333h251.584l-77.781,77.781  c-21.838,21.838-21.838,57.245,0,79.083c21.838,21.838,57.245,21.838,79.083,0l202.667-202.667c4.164-4.165,4.164-10.917,0-15.083  L306.219,45.796z" fill="#ffffff" data-original="#ff9800" class=""/>
<g xmlns="http://www.w3.org/2000/svg">
</g>
<g xmlns="http://www.w3.org/2000/svg">
</g>
<g xmlns="http://www.w3.org/2000/svg">
</g>
<g xmlns="http://www.w3.org/2000/svg">
</g>
<g xmlns="http://www.w3.org/2000/svg">
</g>
<g xmlns="http://www.w3.org/2000/svg">
</g>
<g xmlns="http://www.w3.org/2000/svg">
</g>
<g xmlns="http://www.w3.org/2000/svg">
</g>
<g xmlns="http://www.w3.org/2000/svg">
</g>
<g xmlns="http://www.w3.org/2000/svg">
</g>
<g xmlns="http://www.w3.org/2000/svg">
</g>
<g xmlns="http://www.w3.org/2000/svg">
</g>
<g xmlns="http://www.w3.org/2000/svg">
</g>
<g xmlns="http://www.w3.org/2000/svg">
</g>
<g xmlns="http://www.w3.org/2000/svg">
</g>
</g></svg>
